<?xml version="1.0" encoding="UTF-8" standalone="no"?>
<!-- Created with Inkscape (http://www.inkscape.org/) -->

<svg
   width="210mm"
   height="297mm"
   viewBox="0 0 210 297"
   version="1.1"
   id="svg1"
   sodipodi:docname="amiga.svg"
   inkscape:version="1.3.2 (091e20e, 2023-11-25, custom)"
   xmlns:inkscape="http://www.inkscape.org/namespaces/inkscape"
   xmlns:sodipodi="http://sodipodi.sourceforge.net/DTD/sodipodi-0.dtd"
   xmlns="http://www.w3.org/2000/svg"
   xmlns:svg="http://www.w3.org/2000/svg">
  <sodipodi:namedview
     id="namedview1"
     pagecolor="#ffffff"
     bordercolor="#666666"
     borderopacity="1.0"
     inkscape:showpageshadow="2"
     inkscape:pageopacity="0.0"
     inkscape:pagecheckerboard="0"
     inkscape:deskcolor="#d1d1d1"
     inkscape:document-units="mm"
     inkscape:zoom="1.4627806"
     inkscape:cx="396.50512"
     inkscape:cy="723.62185"
     inkscape:window-width="1920"
     inkscape:window-height="1017"
     inkscape:window-x="-8"
     inkscape:window-y="-8"
     inkscape:window-maximized="1"
     inkscape:current-layer="svg1" />
  <defs
     id="defs1" />
  <g
     inkscape:label="Layer 1"
     inkscape:groupmode="layer"
     id="layer1" />
  <g
     transform="translate(0, 297)"
     id="g70">design<g
   transform="translate(10, -10)"
   id="g69">
  <g
     id="g41">
    <path
       style="fill:none;stroke:#0000FF;stroke-width:0.01"
       d="M 87 -0 a 5 5 0 0 0 5 -5 v -67 a 5 5 0 0 0 -5 -5 h -82 a 5 5 0 0 0 -5 5 v 67 a 5 5 0 0 0 5 5 z"
       id="path36" />
    <path
       style="fill:none;stroke:#0000FF;stroke-width:0.01"
       d="M 10 -15 h 72 v -52 h -72 z"
       id="path37" />
    <path
       style="fill:none;stroke:#FF0000;stroke-width:0.01"
       d="M 0 -5 l 92 -0"
       id="path38" />
    <path
       style="fill:none;stroke:#FF0000;stroke-width:0.01"
       d="M 10 -0 l 0 -5"
       id="path39" />
    <path
       style="fill:none;stroke:#FF0000;stroke-width:0.01"
       d="M 82 -0 l 0 -5"
       id="path40" />
    <path
       style="fill:none;stroke:#FF0000;stroke-width:0.01"
       d="M 84 -11 a 2 2 0 0 0 2 -2 v -56 a 2 2 0 0 0 -2 -2 h -76 a 2 2 0 0 0 -2 2 v 56 a 2 2 0 0 0 2 2 z"
       id="path41" />
  </g>
  <g
     transform="translate(0, -79)"
     id="g62">
    <path
       style="fill:none;stroke:#0000FF;stroke-width:0.01"
       d="M 87 -0 a 5 5 0 0 0 5 -5 v -67 a 5 5 0 0 0 -5 -5 h -82 a 5 5 0 0 0 -5 5 v 67 a 5 5 0 0 0 5 5 z"
       id="path42" />
    <path
       style="fill:none;stroke:#0000FF;stroke-width:0.01"
       d="M 10 -15 h 72 v -52 h -72 z"
       id="path43" />
    <g
       transform="translate(10, -10)"
       id="g44">
      <path
         style="fill:none;stroke:#0000FF;stroke-width:0.01"
         d="M 1.568 -2.715 L 1.568 -2.715 L 3.135 -0 L 1.568 2.715 L -1.567 2.715 L -3.135 0 L -1.568 -2.715 z"
         id="path44" />
    </g>
    <g
       transform="translate(82, -10)"
       id="g45">
      <path
         style="fill:none;stroke:#0000FF;stroke-width:0.01"
         d="M 1.568 -2.715 L 1.568 -2.715 L 3.135 -0 L 1.568 2.715 L -1.567 2.715 L -3.135 0 L -1.568 -2.715 z"
         id="path45" />
    </g>
    <g
       transform="translate(10, -72)"
       id="g46">
      <path
         style="fill:none;stroke:#0000FF;stroke-width:0.01"
         d="M 1.568 -2.715 L 1.568 -2.715 L 3.135 -0 L 1.568 2.715 L -1.567 2.715 L -3.135 0 L -1.568 -2.715 z"
         id="path46" />
    </g>
    <g
       transform="translate(82, -72)"
       id="g47">
      <path
         style="fill:none;stroke:#0000FF;stroke-width:0.01"
         d="M 1.568 -2.715 L 1.568 -2.715 L 3.135 -0 L 1.568 2.715 L -1.567 2.715 L -3.135 0 L -1.568 -2.715 z"
         id="path47" />
    </g>
    <path
       style="fill:none;stroke:#0000FF;stroke-width:0.01"
       d="M 82 -27 h 8 v -4.333 m 0 -1 v -4.333 m 0 -1 v -4.333 h -8"
       id="path48" />
    <path
       style="fill:none;stroke:#0000FF;stroke-width:0.01"
       d="M 10 -15 m 20 -0 v -5 h -20 m 0 5"
       id="path49" />
    <path
       style="fill:none;stroke:#0000FF;stroke-width:0.01"
       d="M 10 -20 m 20 -0 v -5 h -20 m 0 5"
       id="path50" />
    <path
       style="fill:none;stroke:#0000FF;stroke-width:0.01"
       d="M 10 -25 m 20 -0 v -5 h -20 m 0 5"
       id="path51" />
    <path
       style="fill:none;stroke:#0000FF;stroke-width:0.01"
       d="M 10 -30 m 20 -0 v -5 h -20 m 0 5"
       id="path52" />
    <g
       transform="translate(39.27, -19.635)"
       id="g55">
      <path
         style="fill:none;stroke:#0000FF;stroke-width:0.01"
         d="M -4.635 4.635 m 9.27 -0 m 0 -8.27 h -9.27 v 8.27"
         id="path53" />
      <g
         id="g54">
        <path
           style="fill:none;stroke:#0000FF;stroke-width:0.01"
           d="M 1.568 -2.715 L 1.568 -2.715 L 3.135 -0 L 1.568 2.715 L -1.567 2.715 L -3.135 0 L -1.568 -2.715 z"
           id="path54" />
      </g>
    </g>
    <g
       transform="translate(48.54, -19.635)"
       id="g57">
      <path
         style="fill:none;stroke:#0000FF;stroke-width:0.01"
         d="M -4.635 4.635 m 9.27 -0 m 0 -8.27 h -9.27 v 8.27"
         id="path55" />
      <g
         id="g56">
        <path
           style="fill:none;stroke:#0000FF;stroke-width:0.01"
           d="M 1.568 -2.715 L 1.568 -2.715 L 3.135 -0 L 1.568 2.715 L -1.567 2.715 L -3.135 0 L -1.568 -2.715 z"
           id="path56" />
      </g>
    </g>
    <g
       transform="translate(57.81, -19.635)"
       id="g59">
      <path
         style="fill:none;stroke:#0000FF;stroke-width:0.01"
         d="M -4.635 4.635 m 9.27 -0 m 0 -8.27 h -9.27 v 8.27"
         id="path57" />
      <g
         id="g58">
        <path
           style="fill:none;stroke:#0000FF;stroke-width:0.01"
           d="M 1.568 -2.715 L 1.568 -2.715 L 3.135 -0 L 1.568 2.715 L -1.567 2.715 L -3.135 0 L -1.568 -2.715 z"
           id="path58" />
      </g>
    </g>
    <g
       transform="translate(67.08, -19.635)"
       id="g61">
      <path
         style="fill:none;stroke:#0000FF;stroke-width:0.01"
         d="M -4.635 4.635 m 9.27 -0 v -8.27 h -9.27 v 8.27"
         id="path59" />
      <g
         id="g60">
        <path
           style="fill:none;stroke:#0000FF;stroke-width:0.01"
           d="M 1.568 -2.715 L 1.568 -2.715 L 3.135 -0 L 1.568 2.715 L -1.567 2.715 L -3.135 0 L -1.568 -2.715 z"
           id="path60" />
      </g>
    </g>
    <path
       style="fill:none;stroke:#0000FF;stroke-width:0.01"
       d="M 0 -61 h 5 v 4.333 m 0 1 v 4.333 m 0 1 v 4.333 h -5"
       id="path61" />
  </g>
  <g
     transform="translate(94, 0)"
     id="g67">
    <path
       style="fill:none;stroke:#0000FF;stroke-width:0.01"
       d="M 87 -0 a 5 5 0 0 0 5 -5 v -67 a 5 5 0 0 0 -5 -5 h -82 a 5 5 0 0 0 -5 5 v 67 a 5 5 0 0 0 5 5 z"
       id="path62" />
    <circle
       style="fill:none;stroke:#0000FF;stroke-width:0.01"
       r="1.5"
       cx="10.0"
       cy="-10.0"
       id="circle62" />
    <g
       transform="translate(10, -10)"
       id="g63" />
    <circle
       style="fill:none;stroke:#0000FF;stroke-width:0.01"
       r="1.5"
       cx="82.0"
       cy="-10.0"
       id="circle63" />
    <g
       transform="translate(82, -10)"
       id="g64" />
    <circle
       style="fill:none;stroke:#0000FF;stroke-width:0.01"
       r="1.5"
       cx="10.0"
       cy="-72.0"
       id="circle64" />
    <g
       transform="translate(10, -72)"
       id="g65" />
    <circle
       style="fill:none;stroke:#0000FF;stroke-width:0.01"
       r="1.5"
       cx="82.0"
       cy="-72.0"
       id="circle65" />
    <g
       transform="translate(82, -72)"
       id="g66" />
    <path
       style="fill:none;stroke:#0000FF;stroke-width:0.01"
       d="M 0 -15 a 2 2 0 0 1 2 -2 h 7 a 6 6 0 0 0 6 -6 a 6 6 0 0 0 -6 -6 h -7 a 2 2 0 0 1 -2 -2"
       id="path66" />
  </g>
  <g
     transform="translate(94, -79)"
     id="g68">
    <path
       style="fill:none;stroke:#0000FF;stroke-width:0.01"
       d="M 87 -0 a 5 5 0 0 0 5 -5 v -67 a 5 5 0 0 0 -5 -5 h -82 a 5 5 0 0 0 -5 5 v 67 a 5 5 0 0 0 5 5 z"
       id="path67" />
    <path
       style="fill:none;stroke:#0000FF;stroke-width:0.01"
       d="M 10 -15 h 72 v -52 h -72 z"
       id="path68" />
  </g>
</g>
</g>
</svg>
